<mxfile host="app.diagrams.net" agent="Mozilla/5.0 (Windows NT 10.0; Win64; x64) AppleWebKit/537.36 (KHTML, like Gecko) Chrome/131.0.0.0 Safari/537.36" version="25.0.3">
  <diagram name="Page-1" id="UO7eL6MkEstPp8H0Vrgt">
    <mxGraphModel dx="1909" dy="949" grid="1" gridSize="10" guides="1" tooltips="1" connect="1" arrows="1" fold="1" page="1" pageScale="1" pageWidth="827" pageHeight="1169" math="0" shadow="0">
      <root>
        <mxCell id="0" />
        <mxCell id="1" parent="0" />
        <mxCell id="7pDi_KAJMN6NUo0X3p8O-5" style="edgeStyle=orthogonalEdgeStyle;rounded=0;orthogonalLoop=1;jettySize=auto;html=1;exitX=0.5;exitY=1;exitDx=0;exitDy=0;entryX=0.5;entryY=0;entryDx=0;entryDy=0;" edge="1" parent="1" source="7pDi_KAJMN6NUo0X3p8O-1" target="7pDi_KAJMN6NUo0X3p8O-2">
          <mxGeometry relative="1" as="geometry" />
        </mxCell>
        <mxCell id="7pDi_KAJMN6NUo0X3p8O-1" value="เริ่ม" style="ellipse;whiteSpace=wrap;html=1;" vertex="1" parent="1">
          <mxGeometry x="354" y="40" width="156" height="60" as="geometry" />
        </mxCell>
        <mxCell id="7pDi_KAJMN6NUo0X3p8O-6" style="edgeStyle=orthogonalEdgeStyle;rounded=0;orthogonalLoop=1;jettySize=auto;html=1;exitX=0.5;exitY=1;exitDx=0;exitDy=0;entryX=0.5;entryY=0;entryDx=0;entryDy=0;" edge="1" parent="1" source="7pDi_KAJMN6NUo0X3p8O-2" target="7pDi_KAJMN6NUo0X3p8O-3">
          <mxGeometry relative="1" as="geometry" />
        </mxCell>
        <mxCell id="7pDi_KAJMN6NUo0X3p8O-2" value="รับค่า a" style="shape=parallelogram;perimeter=parallelogramPerimeter;whiteSpace=wrap;html=1;fixedSize=1;" vertex="1" parent="1">
          <mxGeometry x="352" y="150" width="160" height="50" as="geometry" />
        </mxCell>
        <mxCell id="7pDi_KAJMN6NUo0X3p8O-7" value="" style="edgeStyle=orthogonalEdgeStyle;rounded=0;orthogonalLoop=1;jettySize=auto;html=1;" edge="1" parent="1" source="7pDi_KAJMN6NUo0X3p8O-3" target="7pDi_KAJMN6NUo0X3p8O-4">
          <mxGeometry relative="1" as="geometry" />
        </mxCell>
        <mxCell id="7pDi_KAJMN6NUo0X3p8O-3" value="รับค่า b" style="shape=parallelogram;perimeter=parallelogramPerimeter;whiteSpace=wrap;html=1;fixedSize=1;" vertex="1" parent="1">
          <mxGeometry x="352" y="260" width="160" height="50" as="geometry" />
        </mxCell>
        <mxCell id="7pDi_KAJMN6NUo0X3p8O-9" value="" style="edgeStyle=orthogonalEdgeStyle;rounded=0;orthogonalLoop=1;jettySize=auto;html=1;" edge="1" parent="1" source="7pDi_KAJMN6NUo0X3p8O-4" target="7pDi_KAJMN6NUo0X3p8O-8">
          <mxGeometry relative="1" as="geometry" />
        </mxCell>
        <mxCell id="7pDi_KAJMN6NUo0X3p8O-4" value="รับค่า c" style="shape=parallelogram;perimeter=parallelogramPerimeter;whiteSpace=wrap;html=1;fixedSize=1;" vertex="1" parent="1">
          <mxGeometry x="352" y="380" width="160" height="50" as="geometry" />
        </mxCell>
        <mxCell id="7pDi_KAJMN6NUo0X3p8O-11" value="" style="edgeStyle=orthogonalEdgeStyle;rounded=0;orthogonalLoop=1;jettySize=auto;html=1;" edge="1" parent="1" source="7pDi_KAJMN6NUo0X3p8O-8" target="7pDi_KAJMN6NUo0X3p8O-10">
          <mxGeometry relative="1" as="geometry" />
        </mxCell>
        <mxCell id="7pDi_KAJMN6NUo0X3p8O-8" value="x = a + b + c" style="rounded=0;whiteSpace=wrap;html=1;" vertex="1" parent="1">
          <mxGeometry x="342" y="490" width="180" height="40" as="geometry" />
        </mxCell>
        <mxCell id="7pDi_KAJMN6NUo0X3p8O-13" value="" style="edgeStyle=orthogonalEdgeStyle;rounded=0;orthogonalLoop=1;jettySize=auto;html=1;" edge="1" parent="1" source="7pDi_KAJMN6NUo0X3p8O-10" target="7pDi_KAJMN6NUo0X3p8O-12">
          <mxGeometry relative="1" as="geometry" />
        </mxCell>
        <mxCell id="7pDi_KAJMN6NUo0X3p8O-10" value="แสดง x" style="shape=parallelogram;perimeter=parallelogramPerimeter;whiteSpace=wrap;html=1;fixedSize=1;" vertex="1" parent="1">
          <mxGeometry x="352" y="585" width="160" height="50" as="geometry" />
        </mxCell>
        <mxCell id="7pDi_KAJMN6NUo0X3p8O-12" value="จบ" style="ellipse;whiteSpace=wrap;html=1;" vertex="1" parent="1">
          <mxGeometry x="354" y="700" width="156" height="60" as="geometry" />
        </mxCell>
      </root>
    </mxGraphModel>
  </diagram>
</mxfile>
